<?xml version="1.0" encoding="utf-8"?>
<!-- Generator: Adobe Illustrator 17.0.0, SVG Export Plug-In . SVG Version: 6.00 Build 0)  -->
<!DOCTYPE svg PUBLIC "-//W3C//DTD SVG 1.1//EN" "http://www.w3.org/Graphics/SVG/1.1/DTD/svg11.dtd">
<svg version="1.1" id="Layer_1" xmlns="http://www.w3.org/2000/svg" xmlns:xlink="http://www.w3.org/1999/xlink" x="0px" y="0px"
	 width="153px" height="138.2px" viewBox="0 0 153 138.2" style="enable-background:new 0 0 153 138.2;" xml:space="preserve">
<g>
	<path style="fill:#3A3A3A;" d="M10.705,16.443c0.441,0,2.207-0.275,2.207,0.554c0,0.826-1.986,0.991-2.427,1.101
		c-5.022,0.995-8.387,3.203-9.269,3.203C0.166,21.301,0,19.036,0,18.376c0-2.593,0.884-5.299,2.815-7.063
		C5.794,8.555,22.346,0.113,26.319,0.001c1.988-0.053,3.699,3.531,3.699,4.304c0,1.104-1.49,3.256-2.097,4.194
		c-9.878,15.726-11.753,20.637-11.864,22.235c-0.11,1.326,0.221,3.588,1.436,3.2c1.489-0.494,4.082-1.874,15.615-20.14
		c-0.607-3.475,4.526-10.096,6.234-9.49c2.43,0.829,1.326,7.669-12.745,26.098c-1.765,2.318-6.897,9.602-9.876,9.602
		c-2.208,0-6.346-3.478-6.235-7.616c0.055-2.205,0.938-6.95,11.421-24.274l-0.111-0.113c-4.965,2.374-10.042,4.801-14.289,8.498
		l0.11,0.11L10.705,16.443z"/>
	<path style="fill:#3A3A3A;" d="M50.435,30.956c-2.484,3.034-7.341,8.001-11.532,8.001c-3.256,0-4.745-3.753-4.745-6.568
		c0-6.731,6.897-13.296,10.206-13.296c0.938,0,2.427,0.332,2.427,1.545c0,2.759-5.461,7.669-7.779,9.271
		c-0.441,2.261,0.388,3.475,2.925,3.475c2.925,0,5.792-2.925,8.001-4.526L50.435,30.956z M45.137,15.618
		c0-2.265,2.649-4.251,4.801-4.251c0.991,0,1.82,0.72,1.82,1.711c0,2.208-2.042,4.911-4.413,4.911
		C46.019,17.988,45.137,16.94,45.137,15.618z"/>
	<path style="fill:#3A3A3A;" d="M72.282,21.078c-1.82,2.868-4.469,6.455-4.469,9.987c0,0.882,0.056,2.759,1.27,2.759
		c1.877,0,6.953-4.469,8.717-5.627l0.388,1.82c-2.593,2.868-8.276,8.661-12.305,8.661c-2.096,0-2.925-2.205-2.925-3.972
		c0-1.379,0.222-2.812,0.441-4.191c-1.93,1.654-7.063,7.006-9.546,7.006s-4.025-5.299-4.025-7.228
		c0-6.512,10.978-12.029,15.667-12.305c1.161-0.053,1.601,0.716,2.318,1.545c1.824-3.143,6.678-14.566,10.706-14.566
		c1.101,0,1.764,1.104,1.764,2.096c0,1.658-1.489,3.919-2.371,5.299L72.282,21.078z M54.683,31.45
		c-0.056,0.498,0.219,0.938,0.829,1.051c0.66,0.166,9.542-6.455,10.428-9.712C56.228,25.933,55.014,27.809,54.683,31.45z"/>
	<path style="fill:#3A3A3A;" d="M81.331,31.175c2.705-2.152,12.745-10.978,15.783-10.978c1.323,0,2.646,1.379,2.646,2.649
		c0,1.048-2.205,3.475-2.868,4.248c-3.422,4.138-3.256,4.304-3.256,4.854c0,0.72,0.554,1.161,1.214,1.161
		c1.82,0,5.849-2.981,7.451-4.028l0.275,2.261c-2.537,1.933-9.214,7.338-12.248,7.338c-1.654,0-2.54-1.432-2.54-2.925
		c0-3.475,3.81-7.669,5.796-10.262l-0.113-0.11c-9.433,6.455-12.192,12.305-13.959,12.305c-1.93,0-2.205-4.304-2.205-5.574
		c0-3.806,1.432-6.455,3.365-9.599C87.179,11.755,98.161,2.1,100.037,2.1c0.882,0,2.371,0.385,2.371,1.489
		c0,3.753-17.546,21.96-21.078,25.435L81.331,31.175L81.331,31.175z"/>
	<path style="fill:#3A3A3A;" d="M110.572,47.286c-0.55,0.607-2.096,2.759-2.981,2.759c-1.157,0-1.654-2.702-1.654-3.64
		c0-0.882,1.048-2.593,1.492-3.309l7.391-12.47l-0.11-0.11c-4.523,3.806-8.551,6.784-9.214,6.731
		c-1.545-0.113-4.194-2.427-4.357-6.512c-0.222-6.621,9.214-13.628,10.756-13.684c0.829,0,2.374,1.767,2.374,2.54
		c0,2.096-6.234,7.835-8.057,9.267c-0.66,0.938-0.991,2.042-1.048,3.203c2.925-0.332,5.574-2.706,7.891-4.857
		c5.683-5.242,9.214-9.049,10.262-9.214c0.938-0.166,1.489,1.986,1.489,2.759c0,1.436-1.489,3.697-2.261,4.857l-8.166,12.139
		l0.113,0.11l12.248-10.869l0.441,2.039L110.572,47.286z"/>
	<path style="fill:#3A3A3A;" d="M134.737,34.374c-1.048,0.829-4.579,3.697-5.846,3.697c-1.545,0-4.748-3.64-4.857-6.509
		c-0.219-6.897,14.125-13.959,20.524-14.125c2.54-0.056,3.588,1.986,3.588,2.649c0,0.66-1.436,1.213-1.93,1.379
		c1.048,0.441,1.598,1.048,1.598,2.261c0,1.764-4.798,5.627-4.798,8.219c0,0.938,0.826,1.326,1.708,1.326
		c2.318,0,5.464-2.815,7.835-4.416L153,30.899c-2.371,2.702-9.765,8.607-12.467,8.607c-1.82,0-2.649-1.323-2.649-2.925
		c0-1.764,1.323-4.688,2.042-6.18l-0.113-0.11L134.737,34.374z M128.062,32.942c0.056,0.275,0.275,1.27,1.104,1.104
		c1.104-0.222,2.812-0.056,13.737-11.091l-0.11-0.11C129.66,26.871,128.062,30.236,128.062,32.942z"/>
</g>
<g>
	<path style="fill:#FFFFFF;" d="M10.705,104.599c0.441,0,2.207-0.275,2.207,0.554c0,0.826-1.986,0.991-2.427,1.101
		c-5.022,0.995-8.387,3.203-9.269,3.203c-1.049,0-1.215-2.265-1.215-2.925c0-2.593,0.884-5.299,2.815-7.063
		c2.979-2.759,19.531-11.201,23.503-11.313c1.988-0.053,3.699,3.531,3.699,4.304c0,1.104-1.49,3.256-2.097,4.194
		c-9.878,15.726-11.753,20.637-11.864,22.235c-0.11,1.326,0.221,3.588,1.436,3.2c1.489-0.494,4.082-1.874,15.615-20.14
		c-0.607-3.475,4.526-10.096,6.234-9.49c2.43,0.829,1.326,7.669-12.745,26.098c-1.765,2.318-6.897,9.602-9.876,9.602
		c-2.208,0-6.346-3.478-6.235-7.616c0.055-2.205,0.938-6.95,11.421-24.274l-0.111-0.113c-4.965,2.374-10.042,4.801-14.289,8.498
		l0.11,0.11L10.705,104.599z"/>
	<path style="fill:#FFFFFF;" d="M50.435,119.112c-2.484,3.034-7.341,8.001-11.532,8.001c-3.256,0-4.745-3.753-4.745-6.568
		c0-6.731,6.897-13.296,10.206-13.296c0.938,0,2.427,0.332,2.427,1.545c0,2.759-5.461,7.669-7.779,9.271
		c-0.441,2.261,0.388,3.475,2.925,3.475c2.925,0,5.792-2.925,8.001-4.526L50.435,119.112z M45.137,103.773
		c0-2.265,2.649-4.251,4.801-4.251c0.991,0,1.82,0.72,1.82,1.711c0,2.208-2.042,4.911-4.413,4.911
		C46.019,106.144,45.137,105.096,45.137,103.773z"/>
	<path style="fill:#FFFFFF;" d="M72.282,109.234c-1.82,2.868-4.469,6.455-4.469,9.987c0,0.882,0.056,2.759,1.27,2.759
		c1.877,0,6.953-4.469,8.717-5.627l0.388,1.82c-2.593,2.868-8.276,8.661-12.305,8.661c-2.096,0-2.925-2.205-2.925-3.972
		c0-1.379,0.222-2.812,0.441-4.191c-1.93,1.654-7.063,7.006-9.546,7.006s-4.025-5.299-4.025-7.228
		c0-6.512,10.978-12.029,15.667-12.305c1.161-0.053,1.601,0.716,2.318,1.545c1.824-3.143,6.678-14.566,10.706-14.566
		c1.101,0,1.764,1.104,1.764,2.096c0,1.658-1.489,3.919-2.371,5.299L72.282,109.234z M54.683,119.605
		c-0.056,0.498,0.219,0.938,0.829,1.051c0.66,0.166,9.542-6.455,10.428-9.712C56.228,114.088,55.014,115.965,54.683,119.605z"/>
	<path style="fill:#FFFFFF;" d="M81.331,119.33c2.705-2.152,12.745-10.978,15.783-10.978c1.323,0,2.646,1.379,2.646,2.649
		c0,1.048-2.205,3.475-2.868,4.248c-3.422,4.138-3.256,4.304-3.256,4.854c0,0.72,0.554,1.161,1.214,1.161
		c1.82,0,5.849-2.981,7.451-4.028l0.275,2.261c-2.537,1.933-9.214,7.338-12.248,7.338c-1.654,0-2.54-1.432-2.54-2.925
		c0-3.475,3.81-7.669,5.796-10.262l-0.113-0.11c-9.433,6.455-12.192,12.305-13.959,12.305c-1.93,0-2.205-4.304-2.205-5.574
		c0-3.806,1.432-6.455,3.365-9.599c6.509-10.759,17.49-20.415,19.367-20.415c0.882,0,2.371,0.385,2.371,1.489
		c0,3.753-17.546,21.96-21.078,25.435L81.331,119.33L81.331,119.33z"/>
	<path style="fill:#FFFFFF;" d="M110.572,135.441c-0.55,0.607-2.096,2.759-2.981,2.759c-1.157,0-1.654-2.702-1.654-3.64
		c0-0.882,1.048-2.593,1.492-3.309l7.391-12.47l-0.11-0.11c-4.523,3.806-8.551,6.784-9.214,6.731
		c-1.545-0.113-4.194-2.427-4.357-6.512c-0.222-6.621,9.214-13.628,10.756-13.684c0.829,0,2.374,1.767,2.374,2.54
		c0,2.096-6.234,7.835-8.057,9.267c-0.66,0.938-0.991,2.042-1.048,3.203c2.925-0.332,5.574-2.705,7.891-4.857
		c5.683-5.242,9.214-9.049,10.262-9.214c0.938-0.166,1.489,1.986,1.489,2.759c0,1.436-1.489,3.697-2.261,4.857l-8.166,12.139
		l0.113,0.11l12.248-10.869l0.441,2.039L110.572,135.441z"/>
	<path style="fill:#FFFFFF;" d="M134.737,122.53c-1.048,0.829-4.579,3.697-5.846,3.697c-1.545,0-4.748-3.64-4.857-6.509
		c-0.219-6.897,14.125-13.959,20.524-14.125c2.54-0.056,3.588,1.986,3.588,2.649c0,0.66-1.436,1.213-1.93,1.379
		c1.048,0.441,1.598,1.048,1.598,2.261c0,1.764-4.798,5.627-4.798,8.219c0,0.938,0.826,1.326,1.708,1.326
		c2.318,0,5.464-2.815,7.835-4.416l0.441,2.042c-2.371,2.702-9.765,8.607-12.467,8.607c-1.82,0-2.649-1.323-2.649-2.925
		c0-1.764,1.323-4.688,2.042-6.18l-0.113-0.11L134.737,122.53z M128.062,121.097c0.056,0.275,0.275,1.27,1.104,1.104
		c1.104-0.222,2.812-0.056,13.737-11.091l-0.11-0.11C129.66,115.027,128.062,118.392,128.062,121.097z"/>
</g>
</svg>
